<svg width="209" height="172" viewBox="0 0 209 172" fill="none" xmlns="http://www.w3.org/2000/svg">
<path d="M36.2969 109.562L44.5 131.359L52.6836 109.562H59.0703V138H54.1484V128.625L54.6367 116.086L46.2383 138H42.7031L34.3242 116.105L34.8125 128.625V138H29.8906V109.562H36.2969ZM81.1992 131.379H70.1836L67.8789 138H62.7422L73.4844 109.562H77.918L88.6797 138H83.5234L81.1992 131.379ZM71.5703 127.395H79.8125L75.6914 115.598L71.5703 127.395ZM96.8633 134.055H109.773V138H91.9219V109.562H96.8633V134.055ZM129.871 131.379H118.855L116.551 138H111.414L122.156 109.562H126.59L137.352 138H132.195L129.871 131.379ZM120.242 127.395H128.484L124.363 115.598L120.242 127.395ZM163.152 138H158.211L145.535 117.824V138H140.594V109.562H145.535L158.25 129.816V109.562H163.152V138ZM190.789 134.309C189.76 135.65 188.335 136.665 186.512 137.355C184.689 138.046 182.618 138.391 180.301 138.391C177.918 138.391 175.809 137.85 173.973 136.77C172.137 135.689 170.717 134.146 169.715 132.141C168.725 130.122 168.211 127.772 168.172 125.09V122.863C168.172 118.566 169.201 115.214 171.258 112.805C173.315 110.383 176.186 109.172 179.871 109.172C183.035 109.172 185.548 109.953 187.41 111.516C189.272 113.078 190.392 115.331 190.77 118.273H185.926C185.379 114.849 183.393 113.137 179.969 113.137C177.755 113.137 176.069 113.938 174.91 115.539C173.764 117.128 173.172 119.465 173.133 122.551V124.738C173.133 127.811 173.777 130.201 175.066 131.906C176.368 133.599 178.172 134.445 180.477 134.445C183.003 134.445 184.799 133.872 185.867 132.727V127.16H180.008V123.41H190.789V134.309Z" fill="black"/>
<path d="M70.8281 168H67.3828V159.154H58.4824V168H55.0234V148.094H58.4824V156.379H67.3828V148.094H70.8281V168ZM86.5645 159.113H78.3887V165.238H87.9453V168H74.9297V148.094H87.8496V150.883H78.3887V156.379H86.5645V159.113ZM94.2207 165.238H103.258V168H90.7617V148.094H94.2207V165.238ZM110.395 148.094L116.137 163.352L121.865 148.094H126.336V168H122.891V161.438L123.232 152.66L117.354 168H114.879L109.014 152.674L109.355 161.438V168H105.91V148.094H110.395ZM142.072 159.113H133.896V165.238H143.453V168H130.438V148.094H143.357V150.883H133.896V156.379H142.072V159.113ZM160.926 150.883H154.719V168H151.287V150.883H145.135V148.094H160.926V150.883Z" fill="black"/>
<path d="M111.636 1.00037L112.371 0.4892L112.061 0.0433492L111.522 0.11252L111.636 1.00037ZM111.734 1.1406L110.999 1.65178L111.291 2.07135L111.8 2.03326L111.734 1.1406ZM32 6.3924L32.5592 5.69341L31.3716 7.0299L32 6.3924ZM52.946 20.9094L52.5804 21.7265L52.5804 21.7265L52.946 20.9094ZM76.8627 28.564L77.5998 29.0718L78.3135 28.0358L77.1008 27.7011L76.8627 28.564ZM73.6845 33.5173L72.9113 33.0663L71.7147 35.1175L73.9676 34.3665L73.6845 33.5173ZM92.2658 34.7337L92.4105 33.8503L92.4105 33.8503L92.2658 34.7337ZM95.4601 35.1763L95.7432 36.0255L95.7432 36.0255L95.4601 35.1763ZM99.4005 39.324H100.296V39.0219L100.113 38.7815L99.4005 39.324ZM99.4005 45.3382H98.5053V45.3754L98.5084 45.4125L99.4005 45.3382ZM96.6041 51.9089L95.836 51.4492L95.836 51.4492L96.6041 51.9089ZM95.4601 54.0484L94.5824 53.8729L94.565 53.9598V54.0484H95.4601ZM79.6988 63.7955L78.8982 64.1959L79.2482 64.8958L79.9886 64.6425L79.6988 63.7955ZM78.4545 61.3069L79.2552 60.9066L79.2552 60.9066L78.4545 61.3069ZM76.7313 60.6383L76.9829 59.7792L76.9829 59.7792L76.7313 60.6383ZM74.929 59.8552L74.1283 59.4549L74.1283 59.4549L74.929 59.8552ZM73.2699 58.4035L73.7046 57.621L72.94 57.1962L72.4976 57.9508L73.2699 58.4035ZM69.7442 64.4177L68.9719 63.965L68.9156 64.0611L68.8845 64.1681L69.7442 64.4177ZM67.8778 70.8467L67.0182 70.5971L66.8638 71.1288L67.2707 71.5044L67.8778 70.8467ZM69.7442 77.483L70.6219 77.6585L70.6219 77.6585L69.7442 77.483ZM80.943 92L80.3585 92.678L81.2294 93.4288L81.7436 92.4003L80.943 92ZM81.5652 90.7557L82.3658 91.156L82.3658 91.156L81.5652 90.7557ZM108.318 76.4461L108.896 77.1294L108.896 77.1294L108.318 76.4461ZM129.056 67.7359L128.859 66.8629L128.806 66.8747L128.756 66.8927L129.056 67.7359ZM148.758 60.27L148.142 59.621L148.142 59.621L148.758 60.27ZM154.729 55.9256L154.946 56.7942L154.946 56.7942L154.729 55.9256ZM154.772 55.9149V55.0197H154.662L154.556 55.0463L154.772 55.9149ZM157.261 52.1819L158.092 51.8495L158.092 51.8495L157.261 52.1819ZM154.976 49.783L155.569 49.1124L155.569 49.1124L154.976 49.783ZM152.491 47.4121L151.822 48.0068L151.822 48.0068L152.491 47.4121ZM156.505 32.8886L155.681 32.5399L155.681 32.5399L156.505 32.8886ZM156.846 32.0655L155.997 31.7825L155.997 31.7825L156.846 32.0655ZM155.608 31.2843L155.941 30.4534L155.941 30.4534L155.608 31.2843ZM154.15 29.7843L153.577 29.0966L153.577 29.0966L154.15 29.7843ZM150.972 20.1599L150.151 20.5183L150.151 20.5183L150.972 20.1599ZM148.81 13.349L149.703 13.4101L149.703 13.4101L148.81 13.349ZM147.721 8.21625L148.42 7.65705L148.275 7.47589L148.061 7.38794L147.721 8.21625ZM110.901 1.51155L110.999 1.65178L112.468 0.629432L112.371 0.4892L110.901 1.51155ZM50.0426 8.73924C54.2589 8.73924 69.7319 7.01758 84.056 5.31109C91.2391 4.45535 98.1624 3.59965 103.29 2.95792C105.854 2.63704 107.968 2.36964 109.443 2.18245C110.18 2.08885 110.756 2.01531 111.149 1.96516C111.345 1.94008 111.495 1.92086 111.597 1.90789C111.647 1.90141 111.686 1.8965 111.711 1.8932C111.724 1.89156 111.734 1.89031 111.74 1.88948C111.744 1.88907 111.746 1.88875 111.748 1.88854C111.748 1.88844 111.749 1.88836 111.749 1.88831C111.75 1.88825 111.75 1.88823 111.636 1.00037C111.522 0.11252 111.522 0.112545 111.522 0.112596C111.521 0.112648 111.521 0.112725 111.52 0.112828C111.518 0.113034 111.516 0.113345 111.512 0.113758C111.506 0.114584 111.496 0.115821 111.484 0.117462C111.458 0.120746 111.42 0.125648 111.369 0.132116C111.268 0.145053 111.118 0.164255 110.922 0.189304C110.53 0.239403 109.954 0.312892 109.217 0.406429C107.744 0.593504 105.63 0.860769 103.067 1.18149C97.9423 1.82296 91.0226 2.67819 83.8442 3.53338C69.4454 5.24876 54.1217 6.94896 50.0426 6.94896V8.73924ZM31.4408 7.09139C31.6485 7.25751 31.9027 7.36367 32.1142 7.43687C32.3433 7.51618 32.6091 7.5854 32.8955 7.64729C33.4691 7.77125 34.1901 7.87941 34.9967 7.9748C36.6136 8.166 38.647 8.31411 40.6888 8.4268C44.7734 8.65225 48.955 8.73924 50.0426 8.73924V6.94896C48.9924 6.94896 44.844 6.86313 40.7874 6.63924C38.7587 6.52727 36.7686 6.38158 35.2069 6.1969C34.4243 6.10434 33.7671 6.00403 33.2736 5.89739C33.0264 5.84397 32.8364 5.79235 32.6998 5.74508C32.5456 5.69171 32.5244 5.66554 32.5592 5.69341L31.4408 7.09139ZM53.3115 20.0923C47.1149 17.3201 37.3997 10.458 32.6284 5.7549L31.3716 7.0299C36.2783 11.8665 46.168 18.8578 52.5804 21.7265L53.3115 20.0923ZM77.1008 27.7011C67.4354 25.0339 57.3972 21.9201 53.3115 20.0923L52.5804 21.7265C56.8108 23.619 66.9816 26.7658 76.6245 29.4269L77.1008 27.7011ZM76.1255 28.0562C74.8875 29.8532 73.7946 31.5521 72.9113 33.0663L74.4577 33.9684C75.3127 32.5027 76.3799 30.8426 77.5998 29.0718L76.1255 28.0562ZM73.9676 34.3665C74.7488 34.1061 75.9346 33.9763 77.4252 33.9676C78.8966 33.9589 80.5908 34.0677 82.3477 34.2424C85.8615 34.5917 89.5603 35.1975 92.121 35.6171L92.4105 33.8503C89.8569 33.4319 86.1037 32.8167 82.5248 32.4609C80.7353 32.283 78.9729 32.1682 77.4147 32.1773C75.8757 32.1863 74.4588 32.3156 73.4014 32.6681L73.9676 34.3665ZM92.121 35.6171C93.0217 35.7646 93.789 35.8904 94.3511 35.9722C94.631 36.013 94.8733 36.0448 95.0618 36.0628C95.1549 36.0717 95.2493 36.0786 95.3354 36.08C95.3796 36.0808 95.5601 36.0866 95.7432 36.0255L95.1771 34.3271C95.3196 34.2796 95.4263 34.291 95.3653 34.29C95.3464 34.2897 95.3044 34.2875 95.2317 34.2806C95.0885 34.2669 94.8814 34.2403 94.609 34.2006C94.0666 34.1217 93.318 33.999 92.4105 33.8503L92.121 35.6171ZM95.7432 36.0255C95.5438 36.092 95.3868 36.0563 95.3387 36.0432C95.2839 36.0282 95.2621 36.0126 95.2816 36.0238C95.3204 36.0461 95.4055 36.1057 95.5413 36.2243C95.8061 36.4557 96.1506 36.8111 96.5353 37.2407C97.2987 38.0932 98.1437 39.1516 98.6884 39.8665L100.113 38.7815C99.5512 38.0448 98.6749 36.9463 97.869 36.0464C97.4691 35.5998 97.0671 35.1801 96.7192 34.8762C96.5487 34.7272 96.361 34.5791 96.1724 34.4709C96.0782 34.4169 95.9541 34.3554 95.8099 34.316C95.6723 34.2785 95.4387 34.2399 95.1771 34.3271L95.7432 36.0255ZM98.5053 39.324V45.3382H100.296V39.324H98.5053ZM98.5084 45.4125C98.5299 45.6704 98.4812 46.0399 98.3356 46.5251C98.1928 47.0008 97.9733 47.5344 97.7023 48.1013C97.1588 49.2378 96.4473 50.4278 95.836 51.4492L97.3722 52.3686C97.9754 51.3607 98.7316 50.0986 99.3174 48.8736C99.6109 48.2598 99.8715 47.6354 100.05 47.0398C100.226 46.4539 100.34 45.8392 100.293 45.2639L98.5084 45.4125ZM95.836 51.4492C95.5392 51.9452 95.2611 52.4095 95.0494 52.7931C94.9432 52.9854 94.8469 53.1697 94.7702 53.3365C94.6994 53.4904 94.6207 53.6815 94.5824 53.8729L96.3379 54.224C96.3339 54.244 96.3403 54.2072 96.3968 54.0843C96.4474 53.9742 96.5204 53.8329 96.6167 53.6583C96.81 53.3081 97.0697 52.8741 97.3722 52.3686L95.836 51.4492ZM94.565 54.0484C94.565 54.0476 94.5646 54.0901 94.522 54.1866C94.4797 54.2825 94.4055 54.409 94.2861 54.5659C94.0452 54.8824 93.6701 55.2581 93.1629 55.6811C92.1517 56.5245 90.7233 57.4674 89.1012 58.4065C85.8582 60.284 81.9711 62.0721 79.4091 62.9486L79.9886 64.6425C82.6804 63.7216 86.6739 61.8805 89.9982 59.9559C91.6596 58.994 93.1865 57.9927 94.3096 57.056C94.8695 56.589 95.3564 56.1157 95.7107 55.6501C96.0485 55.2062 96.3553 54.654 96.3553 54.0484H94.565ZM80.4995 63.3952L79.2552 60.9066L77.6539 61.7072L78.8982 64.1959L80.4995 63.3952ZM79.2552 60.9066C79.1557 60.7077 79.0113 60.5842 78.9326 60.5236C78.8426 60.4543 78.7496 60.4007 78.6722 60.3606C78.517 60.28 78.3372 60.2091 78.1655 60.1477C77.8191 60.0237 77.384 59.8967 76.9829 59.7792L76.4798 61.4973C76.8978 61.6198 77.2763 61.731 77.5626 61.8334C77.7073 61.8851 77.7988 61.9243 77.8477 61.9497C77.8723 61.9624 77.8646 61.9607 77.8403 61.9421C77.8274 61.9321 77.7293 61.8581 77.6539 61.7072L79.2552 60.9066ZM76.9829 59.7792C76.4948 59.6363 76.0575 59.5075 75.7541 59.3907C75.5923 59.3283 75.537 59.2946 75.5402 59.2968C75.5459 59.3007 75.5653 59.3146 75.5915 59.3396C75.6165 59.3635 75.6616 59.4109 75.7051 59.4842C75.7498 59.5594 75.8003 59.675 75.8126 59.8244C75.8254 59.9807 75.7925 60.1298 75.7296 60.2555L74.1283 59.4549C73.9515 59.8085 74.0258 60.1628 74.1659 60.3986C74.28 60.5905 74.4346 60.7087 74.52 60.768C74.7024 60.8945 74.9267 60.9905 75.1107 61.0613C75.499 61.2109 76.0185 61.3623 76.4798 61.4974L76.9829 59.7792ZM75.7296 60.2555C75.8903 59.9341 75.846 59.6228 75.7783 59.4236C75.7137 59.2334 75.6094 59.0824 75.5277 58.9797C75.3622 58.7716 75.1417 58.5813 74.9445 58.428C74.5375 58.1114 74.0384 57.8064 73.7046 57.621L72.8352 59.186C73.1236 59.3462 73.5369 59.6012 73.8454 59.8411C74.0059 59.966 74.094 60.0531 74.1267 60.0943C74.1442 60.1163 74.1115 60.0829 74.0833 59.9999C74.0521 59.9079 74.0091 59.6934 74.1283 59.4549L75.7296 60.2555ZM72.4976 57.9508L68.9719 63.965L70.5164 64.8704L74.0421 58.8562L72.4976 57.9508ZM68.8845 64.1681L67.0182 70.5971L68.7375 71.0962L70.6038 64.6673L68.8845 64.1681ZM67.2707 71.5044C67.9948 72.1729 69.4555 74.3618 68.8664 77.3074L70.6219 77.6585C71.3601 73.9678 69.5581 71.1795 68.485 70.1889L67.2707 71.5044ZM68.8664 77.3074C68.6317 78.4809 69.155 79.8408 69.8712 81.106C70.6172 82.424 71.7033 83.8606 72.9111 85.2717C75.3305 88.0985 78.3312 90.9303 80.3585 92.678L81.5275 91.322C79.5453 89.6133 76.6148 86.8457 74.2712 84.1076C73.0976 82.7363 72.0943 81.3991 71.4292 80.2241C70.7343 78.9964 70.5248 78.1441 70.6219 77.6585L68.8664 77.3074ZM81.7436 92.4003L82.3658 91.156L80.7645 90.3554L80.1424 91.5997L81.7436 92.4003ZM82.3658 91.156C82.4073 91.073 82.611 90.8198 83.1039 90.3881C83.5603 89.9885 84.1732 89.5124 84.9001 88.9852C86.3516 87.9325 88.2059 86.713 90.0522 85.5509C91.8965 84.3902 93.7213 83.2941 95.1088 82.4893C95.8031 82.0865 96.3835 81.7593 96.7997 81.5344C97.0091 81.4213 97.1691 81.3383 97.278 81.2855C97.3339 81.2584 97.365 81.2448 97.3772 81.2398C97.3839 81.2371 97.3734 81.2417 97.3515 81.2484C97.3403 81.2518 97.3176 81.2585 97.2869 81.2648C97.2612 81.27 97.1999 81.2815 97.1191 81.2815V79.4913C96.9704 79.4913 96.8521 79.529 96.8279 79.5364C96.7799 79.5511 96.7368 79.5677 96.7046 79.5807C96.6391 79.6073 96.5673 79.6405 96.4968 79.6746C96.3532 79.7443 96.1667 79.8416 95.9487 79.9593C95.5103 80.1962 94.9127 80.5333 94.2105 80.9407C92.8047 81.7561 90.9614 82.8634 89.0986 84.0358C87.238 85.2068 85.3463 86.45 83.849 87.536C83.1016 88.0781 82.4394 88.5903 81.9245 89.0413C81.446 89.4603 80.9823 89.9199 80.7645 90.3554L82.3658 91.156ZM97.1191 81.2815C97.2257 81.2815 97.351 81.2625 97.4196 81.252C97.5152 81.2373 97.635 81.2164 97.7735 81.1905C98.0516 81.1384 98.4222 81.0626 98.8593 80.9653C99.7335 80.7706 100.886 80.4874 102.113 80.1313C103.337 79.7759 104.648 79.3441 105.833 78.8505C107.003 78.3634 108.116 77.7897 108.896 77.1294L107.74 75.7627C107.172 76.243 106.263 76.7323 105.145 77.1978C104.042 77.6569 102.8 78.0676 101.613 78.4121C100.429 78.7559 99.3135 79.03 98.4702 79.2178C98.0486 79.3117 97.6982 79.3832 97.4441 79.4308C97.3165 79.4547 97.2173 79.4717 97.1476 79.4825C97.0508 79.4973 97.0643 79.4913 97.1191 79.4913V81.2815ZM108.896 77.1294C109.328 76.7636 110.406 76.1716 112.001 75.4278C113.556 74.7026 115.501 73.8784 117.576 73.0402C121.725 71.3646 126.358 69.6477 129.357 68.5791L128.756 66.8927C125.741 67.967 121.083 69.6927 116.905 71.3802C114.817 72.2236 112.84 73.0611 111.244 73.8053C109.688 74.5309 108.386 75.2161 107.74 75.7627L108.896 77.1294ZM129.254 68.6089C131.871 68.0158 135.999 66.9291 139.898 65.591C141.847 64.922 143.754 64.1853 145.392 63.4103C147.013 62.6433 148.44 61.8073 149.375 60.919L148.142 59.621C147.418 60.3088 146.2 61.0472 144.626 61.792C143.069 62.5287 141.23 63.2411 139.317 63.8977C135.491 65.2107 131.427 66.2808 128.859 66.8629L129.254 68.6089ZM149.375 60.919C151.399 58.9955 152.641 58.0038 153.454 57.4712C154.228 56.9647 154.601 56.8799 154.946 56.7942L154.513 55.0569C154.034 55.1761 153.46 55.3272 152.473 55.9734C151.526 56.5937 150.193 57.6717 148.142 59.621L149.375 60.919ZM154.946 56.7942L154.989 56.7835L154.556 55.0463L154.513 55.057L154.946 56.7942ZM154.772 56.81C155.368 56.81 155.891 56.4554 156.239 56.1576C156.627 55.8254 156.996 55.3914 157.302 54.9393C157.608 54.4874 157.877 53.9798 158.042 53.4857C158.193 53.0332 158.317 52.4125 158.092 51.8495L156.43 52.5144C156.412 52.4698 156.459 52.575 156.344 52.9196C156.243 53.2227 156.058 53.5835 155.82 53.9352C155.582 54.2867 155.315 54.5915 155.075 54.7973C154.794 55.0374 154.695 55.0197 154.772 55.0197V56.81ZM158.092 51.8495C157.899 51.3673 157.474 50.8935 157.073 50.492C156.643 50.0623 156.108 49.589 155.569 49.1124L154.383 50.4536C154.934 50.9415 155.424 51.3751 155.806 51.7574C156.217 52.168 156.389 52.4114 156.43 52.5144L158.092 51.8495ZM155.569 49.1124C154.717 48.3594 153.84 47.5827 153.16 46.8174L151.822 48.0068C152.587 48.8678 153.55 49.7175 154.383 50.4536L155.569 49.1124ZM153.16 46.8174C153.187 46.848 153.11 46.7726 153.092 46.4017C153.076 46.0625 153.115 45.6031 153.215 45.0317C153.413 43.8936 153.825 42.4586 154.333 40.9451C155.347 37.9262 156.698 34.7303 157.33 33.2372L155.681 32.5399C155.052 34.028 153.675 37.2829 152.636 40.3751C152.118 41.9171 151.673 43.4526 151.451 44.7239C151.34 45.3572 151.279 45.9622 151.304 46.4876C151.328 46.9813 151.434 47.5707 151.822 48.0068L153.16 46.8174ZM157.33 33.2373C157.507 32.8188 157.654 32.4741 157.695 32.3486L155.997 31.7825C155.999 31.7748 155.996 31.7861 155.977 31.8325C155.961 31.8728 155.939 31.9267 155.911 31.9949C155.854 32.1315 155.776 32.3141 155.681 32.5399L157.33 33.2373ZM157.695 32.3486C157.863 31.845 157.609 31.4503 157.446 31.2725C157.289 31.1001 157.094 30.98 156.953 30.902C156.66 30.7397 156.269 30.5847 155.941 30.4534L155.275 32.1151C155.643 32.2625 155.912 32.3724 156.086 32.4683C156.178 32.5194 156.167 32.5267 156.125 32.4807C156.1 32.4532 156.038 32.3784 155.996 32.2541C155.95 32.1143 155.942 31.9468 155.997 31.7825L157.695 32.3486ZM155.941 30.4534C155.68 30.3489 155.436 30.2507 155.217 30.1501C154.992 30.0466 154.841 29.9612 154.753 29.8953C154.635 29.8067 154.77 29.8601 154.805 30.0814C154.854 30.3891 154.654 30.5297 154.723 30.472L153.577 29.0966C153.276 29.3479 152.944 29.7792 153.037 30.3617C153.115 30.858 153.469 31.1707 153.68 31.3284C154.125 31.6619 154.808 31.9279 155.275 32.1151L155.941 30.4534ZM154.723 30.472C155.114 30.1464 155.184 29.6758 155.197 29.4053C155.213 29.0966 155.169 28.7554 155.102 28.42C154.966 27.7412 154.695 26.8923 154.359 25.9751C153.684 24.1316 152.689 21.8547 151.792 19.8016L150.151 20.5183C151.056 22.5875 152.026 24.8093 152.678 26.5906C153.006 27.4857 153.238 28.2308 153.347 28.7713C153.401 29.0455 153.414 29.2202 153.41 29.3142C153.403 29.4464 153.375 29.2654 153.577 29.0966L154.723 30.472ZM151.792 19.8016C151.202 18.4502 150.654 17.1975 150.254 16.201C150.054 15.7023 149.896 15.2819 149.79 14.9537C149.737 14.7897 149.7 14.6592 149.677 14.5603C149.652 14.4514 149.653 14.4195 149.653 14.4377H147.863C147.863 14.7611 147.974 15.1579 148.087 15.5055C148.212 15.8908 148.387 16.3549 148.593 16.868C149.005 17.8952 149.565 19.1757 150.151 20.5183L151.792 19.8016ZM149.653 14.4377C149.653 14.1414 149.676 13.8075 149.703 13.4101L147.917 13.288C147.891 13.6698 147.863 14.0684 147.863 14.4377H149.653ZM149.703 13.4101C149.806 11.8947 149.992 9.62123 148.42 7.65705L147.022 8.77545C148.103 10.1267 148.025 11.6989 147.917 13.288L149.703 13.4101ZM148.061 7.38794C131.753 0.706185 119.629 -0.347049 111.667 0.247951L111.8 2.03326C119.461 1.46078 131.307 2.45849 147.382 9.04456L148.061 7.38794Z" fill="black"/>
<path d="M98.8374 48.4424L99.1358 40.3861L150.756 20.0962C151.949 23.1795 154.277 29.4057 154.038 29.6444C153.799 29.8831 153.938 30.3406 154.038 30.5395L156.723 32.0314L154.038 40.6845L98.8374 48.4424Z" stroke="black" stroke-width="2.38705"/>
<path d="M95.5554 36.5073C93.6457 34.1203 79.4428 33.822 72.8784 34.717V57.394C75.8622 58.7864 79.5025 62.9438 80.9347 62.4664C82.3669 61.989 91.378 56.3994 94.3618 54.4101L97.9424 48.7409C98.0419 47.4479 98.0021 44.3249 98.2408 42.1765C98.5392 39.4911 97.9424 39.4911 95.5554 36.5073Z" stroke="black" stroke-width="1.19352"/>
<path d="M76.7572 27.8542C84.5151 28.252 100.986 29.4654 104.805 31.1364C108.624 32.8073 118.53 27.8542 123.006 25.1687C115.149 21.3893 107.789 15.6207 102.716 15.6207C97.7772 15.6207 126.885 5.17719 132.853 7.26586C138.82 9.35452 119.981 3.87279 113.756 2.79029C106.894 1.5968 41.8466 10.5482 35.2822 8.45949" stroke="black" stroke-width="1.19352"/>
<circle cx="106.297" cy="24.5719" r="3.87895" stroke="black" stroke-width="1.19352"/>
<path d="M73.4751 78.2808L78.846 84.2484" stroke="black" stroke-linecap="round"/>
<path d="M73.4751 75.5952L78.846 81.5628" stroke="black" stroke-linecap="round"/>
<path d="M73.4751 72.6113L78.846 78.5789" stroke="black" stroke-linecap="round"/>
<path d="M78.3085 64.8763C78.3085 64.8763 68.7603 71.9311 69.6554 69.9488C70.5506 67.9666 73.8327 60.8184 73.8327 61.2958C73.8327 61.7732 76.2198 62.4893 77.4133 62.7877L78.3085 64.8763Z" stroke="black" stroke-width="0.596762"/>
<line x1="108.53" y1="22.462" x2="103.889" y2="27.1037" stroke="black" stroke-width="0.596762"/>
<path d="M80.9345 84.2484V77.684M80.9345 77.684C88.8913 74.4018 107.908 66.1665 120.321 59.4828C132.733 52.799 135.837 50.3324 135.837 49.9346M80.9345 77.684L74.3701 71.1196" stroke="black" stroke-linecap="round"/>
<path fill-rule="evenodd" clip-rule="evenodd" d="M40.6904 158H0.5C0.223858 158 0 158.224 0 158.5C0 158.776 0.223858 159 0.5 159H40.6904V158ZM168.31 159H208.5C208.776 159 209 158.776 209 158.5C209 158.224 208.776 158 208.5 158H168.31V159Z" fill="black"/>
</svg>
