<svg width="151" height="78" viewBox="0 0 151 78" fill="none" xmlns="http://www.w3.org/2000/svg">
<path d="M2.21364 11.4377H6.8532L10.3404 28.4494L13.949 11.4377H18.4672L18.9221 36H15.5865L15.2226 18.9277L11.7353 36H9.03652L5.48862 18.867L5.15506 36H1.78911L2.21364 11.4377ZM25.6727 36.2729C24.9247 36.2729 24.2576 36.0708 23.6713 35.6664C23.1053 35.2621 22.6606 34.7466 22.3371 34.1199C22.0339 33.473 21.8822 32.8059 21.8822 32.1185C21.8822 30.7641 22.1956 29.6522 22.8223 28.7829C23.4692 27.8934 24.2576 27.2061 25.1875 26.7209C26.1377 26.2357 27.3911 25.7 28.9477 25.1137V23.5975C28.9477 22.7889 28.8466 22.2026 28.6445 21.8387C28.4625 21.4546 28.0986 21.2626 27.5528 21.2626C26.6229 21.2626 26.1377 21.9095 26.0973 23.2033L26.0366 24.2647L22.1248 24.113C22.1855 22.0914 22.6808 20.6056 23.6107 19.6554C24.5608 18.6851 25.9861 18.1999 27.8864 18.1999C29.6047 18.1999 30.8783 18.675 31.7072 19.6251C32.536 20.555 32.9505 21.8792 32.9505 23.5975V31.694C32.9505 32.9474 33.0515 34.3827 33.2537 36H29.5542C29.352 34.9083 29.2105 34.0694 29.1296 33.4831C28.8871 34.2715 28.4726 34.9387 27.8864 35.4845C27.3203 36.0101 26.5824 36.2729 25.6727 36.2729ZM27.1889 33.2102C27.5326 33.2102 27.856 33.0889 28.1593 32.8463C28.4827 32.6037 28.7455 32.3409 28.9477 32.0579V27.1454C27.8763 27.7721 27.0777 28.3786 26.5521 28.9649C26.0265 29.5309 25.7637 30.2486 25.7637 31.1179C25.7637 31.7648 25.885 32.2803 26.1276 32.6644C26.3904 33.0283 26.7442 33.2102 27.1889 33.2102ZM36.2603 11.4377H40.354V36H36.2603V11.4377ZM47.0238 36.2729C46.2758 36.2729 45.6087 36.0708 45.0224 35.6664C44.4564 35.2621 44.0116 34.7466 43.6882 34.1199C43.385 33.473 43.2333 32.8059 43.2333 32.1185C43.2333 30.7641 43.5467 29.6522 44.1734 28.7829C44.8203 27.8934 45.6087 27.2061 46.5386 26.7209C47.4888 26.2357 48.7422 25.7 50.2988 25.1137V23.5975C50.2988 22.7889 50.1977 22.2026 49.9956 21.8387C49.8136 21.4546 49.4497 21.2626 48.9039 21.2626C47.974 21.2626 47.4888 21.9095 47.4484 23.2033L47.3877 24.2647L43.4759 24.113C43.5366 22.0914 44.0319 20.6056 44.9618 19.6554C45.9119 18.6851 47.3372 18.1999 49.2375 18.1999C50.9558 18.1999 52.2294 18.675 53.0583 19.6251C53.8871 20.555 54.3016 21.8792 54.3016 23.5975V31.694C54.3016 32.9474 54.4026 34.3827 54.6048 36H50.9053C50.7031 34.9083 50.5616 34.0694 50.4807 33.4831C50.2382 34.2715 49.8237 34.9387 49.2375 35.4845C48.6714 36.0101 47.9335 36.2729 47.0238 36.2729ZM48.54 33.2102C48.8837 33.2102 49.2071 33.0889 49.5104 32.8463C49.8338 32.6037 50.0966 32.3409 50.2988 32.0579V27.1454C49.2274 27.7721 48.4288 28.3786 47.9032 28.9649C47.3776 29.5309 47.1148 30.2486 47.1148 31.1179C47.1148 31.7648 47.2361 32.2803 47.4787 32.6644C47.7415 33.0283 48.0953 33.2102 48.54 33.2102ZM57.3384 18.4728H61.4625V20.2013C62.8574 18.867 64.2725 18.1999 65.7078 18.1999C66.6984 18.1999 67.4363 18.5638 67.9215 19.2915C68.4269 20.0193 68.6796 20.9391 68.6796 22.051V36H64.5555V22.8698C64.5555 22.3037 64.4646 21.8893 64.2826 21.6265C64.1209 21.3637 63.8176 21.2323 63.3729 21.2323C62.8877 21.2323 62.2509 21.5153 61.4625 22.0813V36H57.3384V18.4728ZM76.8559 41.7615C74.996 41.7615 73.5203 41.4684 72.4286 40.8821C71.3369 40.3161 70.7911 39.4569 70.7911 38.3046C70.7911 37.5364 71.0337 36.8592 71.5189 36.2729C72.0041 35.7069 72.6409 35.2419 73.4293 34.878C72.7622 34.6759 72.2467 34.3827 71.8828 33.9986C71.5391 33.5943 71.3673 33.1091 71.3673 32.5431C71.3673 31.8962 71.5189 31.3301 71.8221 30.8449C72.1456 30.3598 72.6409 29.824 73.308 29.2378C72.6813 28.7324 72.2062 28.0956 71.8828 27.3274C71.5795 26.5389 71.4279 25.5484 71.4279 24.3556C71.4279 22.3543 71.903 20.8279 72.8531 19.7767C73.8235 18.7255 75.2285 18.1999 77.0682 18.1999C78.8472 18.1999 80.141 18.7457 80.9496 19.8374C81.1316 19.5543 81.4247 19.241 81.829 18.8973C82.2333 18.5537 82.6882 18.2605 83.1936 18.0179L83.7697 17.7753L84.7401 19.989C84.3762 20.0901 83.8809 20.272 83.2542 20.5348C82.6275 20.7774 82.1727 20.9897 81.8897 21.1716C82.0716 21.5759 82.2232 22.0813 82.3445 22.6878C82.4658 23.2943 82.5265 23.8704 82.5265 24.4163C82.5265 26.3368 82.0817 27.8328 81.1922 28.9042C80.3027 29.9554 78.928 30.4811 77.0682 30.4811C76.2595 30.4811 75.4711 30.3598 74.7029 30.1172C74.3592 30.6226 74.1874 31.0269 74.1874 31.3301C74.1874 31.5727 74.3087 31.7648 74.5513 31.9063C74.7939 32.0276 75.1982 32.1185 75.7642 32.1792L79.4334 32.5431C82.2636 32.8463 83.6788 34.3221 83.6788 36.9704C83.6788 38.5674 83.1228 39.7602 82.0109 40.5486C80.9193 41.3572 79.2009 41.7615 76.8559 41.7615ZM77.0682 27.8732C77.7555 27.8732 78.2104 27.6104 78.4327 27.0848C78.6551 26.5592 78.7663 25.6494 78.7663 24.3556C78.7663 23.082 78.6551 22.1723 78.4327 21.6265C78.2104 21.0806 77.7555 20.8077 77.0682 20.8077C76.3808 20.8077 75.9158 21.0806 75.6733 21.6265C75.4307 22.1521 75.3094 23.0618 75.3094 24.3556C75.3094 25.5686 75.4307 26.4581 75.6733 27.0241C75.9158 27.5902 76.3808 27.8732 77.0682 27.8732ZM77.3107 38.6685C78.4631 38.6685 79.3121 38.5472 79.858 38.3046C80.424 38.0822 80.707 37.688 80.707 37.122C80.707 36.6368 80.5251 36.2729 80.1612 36.0303C79.8175 35.8079 79.1605 35.6462 78.1901 35.5451L75.1881 35.2722C74.804 35.5957 74.5108 35.8989 74.3087 36.1819C74.1065 36.4852 74.0054 36.8187 74.0054 37.1826C74.0054 37.688 74.2581 38.062 74.7635 38.3046C75.2689 38.5472 76.118 38.6685 77.3107 38.6685Z" fill="#F2F2F2"/>
<path d="M1.9104 44.1285H5.337V54.7419H11.6444V44.1285H15.071V68.6909H11.6444V57.1981H5.337V68.6909H1.9104V44.1285ZM24.397 68.9334C23.0425 68.9334 21.9913 68.6807 21.2433 68.1754C20.4953 67.6497 19.9697 66.8815 19.6665 65.8707C19.3632 64.8599 19.2116 63.5459 19.2116 61.9286V57.9259C19.2116 55.5 19.5856 53.7311 20.3336 52.6192C21.1018 51.4871 22.4563 50.9211 24.397 50.9211C25.8121 50.9211 26.8734 51.2142 27.581 51.8005C28.3088 52.3867 28.7838 53.2156 29.0062 54.287C29.2488 55.3382 29.3701 56.7635 29.3701 58.5627V59.9879H22.4563V63.5055C22.4563 64.5769 22.6079 65.3552 22.9111 65.8404C23.2346 66.3054 23.74 66.5379 24.4273 66.5379C25.1147 66.5379 25.5796 66.3054 25.8222 65.8404C26.0648 65.3552 26.1861 64.6275 26.1861 63.6571V62.5958H29.3398V63.2629C29.3398 65.1025 28.9456 66.5075 28.1571 67.4779C27.3687 68.4483 26.1153 68.9334 24.397 68.9334ZM26.1861 58.2291V56.6523C26.1861 55.4595 26.0648 54.6105 25.8222 54.1051C25.5998 53.5795 25.1147 53.3166 24.3667 53.3166C23.841 53.3166 23.4367 53.4379 23.1537 53.6805C22.8909 53.9231 22.709 54.3274 22.6079 54.8935C22.5068 55.4393 22.4563 56.2378 22.4563 57.2891V58.2291H26.1861ZM33.5214 44.1285H36.7661V68.6909H33.5214V44.1285ZM41.0574 51.1637H44.0594V52.8315C44.6457 52.1846 45.2825 51.6994 45.9698 51.3759C46.6774 51.0322 47.4153 50.8604 48.1835 50.8604C49.6794 50.8604 50.6296 51.5983 51.0339 53.0741C52.2469 51.5983 53.7024 50.8604 55.4006 50.8604C56.3103 50.8604 57.0482 51.194 57.6142 51.8611C58.2005 52.5282 58.4936 53.5491 58.4936 54.9238V68.6909H55.5218V55.1361C55.5218 54.3274 55.3904 53.7715 55.1276 53.4683C54.8648 53.1448 54.4908 52.9831 54.0057 52.9831C53.5609 52.9831 53.0959 53.1145 52.6108 53.3773C52.1256 53.6199 51.6808 53.9636 51.2765 54.4083V54.9238V68.6909H48.3048V55.1361C48.3048 54.3274 48.1734 53.7715 47.9106 53.4683C47.6477 53.1448 47.2738 52.9831 46.7886 52.9831C46.364 52.9831 45.9092 53.1145 45.424 53.3773C44.9388 53.6199 44.484 53.9636 44.0594 54.4083V68.6909H41.0574V51.1637ZM67.4297 68.9334C66.0752 68.9334 65.024 68.6807 64.276 68.1754C63.528 67.6497 63.0024 66.8815 62.6991 65.8707C62.3959 64.8599 62.2443 63.5459 62.2443 61.9286V57.9259C62.2443 55.5 62.6183 53.7311 63.3663 52.6192C64.1345 51.4871 65.4889 50.9211 67.4297 50.9211C68.8448 50.9211 69.9061 51.2142 70.6137 51.8005C71.3414 52.3867 71.8165 53.2156 72.0389 54.287C72.2815 55.3382 72.4028 56.7635 72.4028 58.5627V59.9879H65.4889V63.5055C65.4889 64.5769 65.6406 65.3552 65.9438 65.8404C66.2672 66.3054 66.7726 66.5379 67.46 66.5379C68.1473 66.5379 68.6123 66.3054 68.8549 65.8404C69.0975 65.3552 69.2188 64.6275 69.2188 63.6571V62.5958H72.3725V63.2629C72.3725 65.1025 71.9782 66.5075 71.1898 67.4779C70.4014 68.4483 69.148 68.9334 67.4297 68.9334ZM69.2188 58.2291V56.6523C69.2188 55.4595 69.0975 54.6105 68.8549 54.1051C68.6325 53.5795 68.1473 53.3166 67.3993 53.3166C66.8737 53.3166 66.4694 53.4379 66.1864 53.6805C65.9236 53.9231 65.7416 54.3274 65.6406 54.8935C65.5395 55.4393 65.4889 56.2378 65.4889 57.2891V58.2291H69.2188ZM80.9207 68.9334C78.3937 68.9334 77.1302 67.5385 77.1302 64.7488V53.3166H75.2805V51.1637H77.1302V46.0389H80.3749V51.1637H83.195V53.3166H80.3749V64.5365C80.3749 65.244 80.4861 65.7393 80.7084 66.0224C80.9308 66.3054 81.3554 66.4469 81.982 66.4469C82.3864 66.4469 82.7806 66.4166 83.1647 66.3559V68.7515C82.356 68.8728 81.6081 68.9334 80.9207 68.9334Z" fill="#F2F2F2"/>
<path d="M109.564 68.9334C108.19 68.9334 107.128 68.6605 106.38 68.1147C105.632 67.5487 105.117 66.7703 104.834 65.7798C104.571 64.769 104.44 63.4954 104.44 61.959V57.9259C104.44 56.349 104.571 55.0552 104.834 54.0444C105.117 53.0336 105.632 52.2654 106.38 51.7398C107.128 51.194 108.19 50.9211 109.564 50.9211C110.818 50.9211 111.788 51.1232 112.475 51.5275C113.183 51.9319 113.668 52.5383 113.931 53.347C114.214 54.1354 114.356 55.1664 114.356 56.44V57.471H111.414V56.4097C111.414 55.2574 111.283 54.4588 111.02 54.0141C110.777 53.5491 110.302 53.3166 109.595 53.3166C109.049 53.3166 108.645 53.4379 108.382 53.6805C108.119 53.9231 107.937 54.3173 107.836 54.8632C107.735 55.409 107.684 56.2075 107.684 57.2588V62.7777C107.684 63.7885 107.745 64.5668 107.866 65.1126C107.988 65.6383 108.18 66.0122 108.442 66.2346C108.725 66.4368 109.12 66.5379 109.625 66.5379C110.373 66.5379 110.858 66.2953 111.081 65.8101C111.303 65.3047 111.414 64.5365 111.414 63.5055V62.0802H114.356V63.2932C114.356 65.1935 114.002 66.6086 113.294 67.5385C112.607 68.4685 111.364 68.9334 109.564 68.9334ZM122.972 68.9334C121.112 68.9334 119.788 68.3876 118.999 67.296C118.231 66.1841 117.847 64.5769 117.847 62.4745V57.38C117.847 55.2776 118.231 53.6805 118.999 52.5889C119.788 51.477 121.112 50.9211 122.972 50.9211C124.811 50.9211 126.115 51.477 126.883 52.5889C127.672 53.6805 128.066 55.2776 128.066 57.38V62.4745C128.066 64.5769 127.672 66.1841 126.883 67.296C126.115 68.3876 124.811 68.9334 122.972 68.9334ZM122.972 66.5379C123.558 66.5379 123.982 66.366 124.245 66.0224C124.508 65.6787 124.67 65.2541 124.73 64.7488C124.791 64.2434 124.821 63.556 124.821 62.6867V57.1981C124.821 56.3288 124.791 55.6415 124.73 55.1361C124.67 54.6105 124.508 54.1758 124.245 53.8322C123.982 53.4885 123.558 53.3166 122.972 53.3166C122.385 53.3166 121.951 53.4885 121.668 53.8322C121.405 54.1758 121.243 54.6105 121.182 55.1361C121.122 55.6415 121.092 56.3288 121.092 57.1981V62.6867C121.092 63.556 121.122 64.2434 121.182 64.7488C121.243 65.2541 121.405 65.6787 121.668 66.0224C121.951 66.366 122.385 66.5379 122.972 66.5379ZM131.942 51.1637H134.944V52.8315C135.53 52.1846 136.167 51.6994 136.854 51.3759C137.562 51.0322 138.299 50.8604 139.068 50.8604C140.564 50.8604 141.514 51.5983 141.918 53.0741C143.131 51.5983 144.587 50.8604 146.285 50.8604C147.194 50.8604 147.932 51.194 148.498 51.8611C149.085 52.5282 149.378 53.5491 149.378 54.9238V68.6909H146.406V55.1361C146.406 54.3274 146.275 53.7715 146.012 53.4683C145.749 53.1448 145.375 52.9831 144.89 52.9831C144.445 52.9831 143.98 53.1145 143.495 53.3773C143.01 53.6199 142.565 53.9636 142.161 54.4083V54.9238V68.6909H139.189V55.1361C139.189 54.3274 139.058 53.7715 138.795 53.4683C138.532 53.1448 138.158 52.9831 137.673 52.9831C137.248 52.9831 136.793 53.1145 136.308 53.3773C135.823 53.6199 135.368 53.9636 134.944 54.4083V68.6909H131.942V51.1637Z" fill="#F2F2F2"/>
<circle cx="93.3038" cy="63.7456" r="5.41321" fill="#EB5757"/>
</svg>
